HIERARCHY
ROOT Hips
{
	OFFSET 0.000000 0.000000 0.000000
	CHANNELS 6 Xposition Yposition Zposition Xrotation Yrotation Zrotation
	JOINT LeftUpLeg_virtual
	{
		OFFSET 0.000000 0.000000 0.000000
		CHANNELS 3 Xrotation Yrotation Zrotation
		JOINT LeftUpLeg
		{
			OFFSET 10.205400 -3.823500 0.155100
			CHANNELS 3 Xrotation Yrotation Zrotation
			JOINT LeftLeg
			{
				OFFSET 0.708757 -12.982077 0.567790
				CHANNELS 3 Xrotation Yrotation Zrotation
				JOINT LeftFoot
				{
					OFFSET -0.708756 -10.717838 -2.184338
					CHANNELS 3 Xrotation Yrotation Zrotation
					JOINT LeftToeBase
					{
						OFFSET 0.108149 -7.191104 7.560241
						CHANNELS 3 Xrotation Yrotation Zrotation
						JOINT LeftToe_End
						{
							OFFSET 0.070230 0.081724 4.490308
							CHANNELS 3 Xrotation Yrotation Zrotation
							End Site
							{
								OFFSET 0 0 0
							}
						}
					}
				}
			}
		}
	}
	JOINT RightUpLeg_virtual
	{
		OFFSET 0.000000 0.000000 0.000000
		CHANNELS 3 Xrotation Yrotation Zrotation
		JOINT RightUpLeg
		{
			OFFSET -10.205400 -3.823500 0.005500
			CHANNELS 3 Xrotation Yrotation Zrotation
			JOINT RightLeg
			{
				OFFSET -0.708756 -12.982134 0.610632
				CHANNELS 3 Xrotation Yrotation Zrotation
				JOINT RightFoot
				{
					OFFSET 0.708754 -10.717769 -1.945823
					CHANNELS 3 Xrotation Yrotation Zrotation
					JOINT RightToeBase
					{
						OFFSET -0.108140 -7.191069 7.372968
						CHANNELS 3 Xrotation Yrotation Zrotation
						JOINT RightToe_End
						{
							OFFSET -0.070227 0.081735 4.479403
							CHANNELS 3 Xrotation Yrotation Zrotation
							End Site
							{
								OFFSET 0 0 0
							}
						}
					}
				}
			}
		}
	}
	JOINT Spine_virtual
	{
		OFFSET 0.000000 0.000000 0.000000
		CHANNELS 3 Xrotation Yrotation Zrotation
		JOINT Spine
		{
			OFFSET 0.000000 6.876099 0.125700
			CHANNELS 3 Xrotation Yrotation Zrotation
			JOINT Spine1
			{
				OFFSET 0.000000 5.730043 0.104720
				CHANNELS 3 Xrotation Yrotation Zrotation
				JOINT Spine1_split
				{
					OFFSET 0.000000 5.730043 0.104720
					CHANNELS 3 Xrotation Yrotation Zrotation
					JOINT Spine2
					{
						OFFSET 0.000000 5.730043 0.104720
						CHANNELS 3 Xrotation Yrotation Zrotation
						JOINT Neck_virtual
						{
							OFFSET 0.000000 0.000000 0.000000
							CHANNELS 3 Xrotation Yrotation Zrotation
							JOINT Neck
							{
								OFFSET 0.000000 10.314075 0.188496
								CHANNELS 3 Xrotation Yrotation Zrotation
								JOINT Head
								{
									OFFSET 0.000000 7.643700 -2.377400
									CHANNELS 3 Xrotation Yrotation Zrotation
									JOINT HeadTop_End
									{
										OFFSET 0.000000 43.788605 -13.619600
										CHANNELS 3 Xrotation Yrotation Zrotation
										End Site
										{
											OFFSET 0 0 0
										}
									}
								}
							}
						}
						JOINT LeftShoulder_virtual
						{
							OFFSET 0.000000 0.000000 0.000000
							CHANNELS 3 Xrotation Yrotation Zrotation
							JOINT LeftShoulder
							{
								OFFSET 2.196100 4.412489 0.087492
								CHANNELS 3 Xrotation Yrotation Zrotation
								JOINT LeftShoulder_split
								{
									OFFSET 2.196100 4.412489 0.087492
									CHANNELS 3 Xrotation Yrotation Zrotation
									JOINT LeftArm
									{
										OFFSET 8.771219 -2.981674 -0.026999
										CHANNELS 3 Xrotation Yrotation Zrotation
										JOINT LeftForeArm
										{
											OFFSET 8.512804 0.000000 -0.000000
											CHANNELS 3 Xrotation Yrotation Zrotation
											JOINT LeftHand
											{
												OFFSET 18.484802 0.000000 -0.000000
												CHANNELS 3 Xrotation Yrotation Zrotation
												End Site
												{
													OFFSET 0 0 0
												}
											}
										}
									}
								}
							}
						}
						JOINT RightShoulder_virtual
						{
							OFFSET 0.000000 0.000000 0.000000
							CHANNELS 3 Xrotation Yrotation Zrotation
							JOINT RightShoulder
							{
								OFFSET -2.196100 4.412496 0.070690
								CHANNELS 3 Xrotation Yrotation Zrotation
								JOINT RightShoulder_split
								{
									OFFSET -2.196100 4.412496 0.070690
									CHANNELS 3 Xrotation Yrotation Zrotation
									JOINT RightArm
									{
										OFFSET -8.771282 -2.981682 -0.094208
										CHANNELS 3 Xrotation Yrotation Zrotation
										JOINT RightForeArm
										{
											OFFSET -8.494598 0.000000 0.000000
											CHANNELS 3 Xrotation Yrotation Zrotation
											JOINT RightHand
											{
												OFFSET -18.483803 0.000000 0.000001
												CHANNELS 3 Xrotation Yrotation Zrotation
												End Site
												{
													OFFSET 0 0 0
												}
											}
										}
									}
								}
							}
						}
					}
				}
			}
		}
	}
}
MOTION
Frames: 4
Frame Time: 0.03333333
-6.737734 27.281424 -0.765266 0.000000 0.000000 0.000000 -7.719984 -47.291301 2.090135 -21.586852 10.326537 25.850511 53.951910 -7.754321 13.153969 -32.878051 -6.323678 -31.948053 -5.299912 0.245769 0.729812 0.000000 0.000000 0.000000 -9.380256 -43.122246 2.805387 -21.223483 -5.188213 -43.955283 52.300439 -6.761801 -14.936785 -18.704396 -10.416476 30.684987 -2.459752 1.027639 -0.503014 0.000000 0.000000 0.000000 -6.443811 -44.869466 3.378355 10.307135 7.764614 -2.049979 2.256574 0.604656 -2.316425 0.443707 -1.429320 0.817163 0.000000 0.000000 0.000000 2.647754 0.427102 -2.018713 0.818651 13.558320 1.681130 11.152847 18.130720 0.201044 0.000000 0.000000 0.000000 3.174028 0.294557 -2.331198 2.022175 -2.327801 -13.153275 -2.506761 -3.083709 0.190338 -68.392276 -0.704589 -39.948957 178.717528 -75.535656 -179.777218 0.000000 0.000000 0.000000 3.705080 0.547638 -2.063010 3.275643 10.947281 -12.915181 -0.941294 0.413912 1.596412 -66.050921 20.084501 88.037068 -22.075870 85.487372 19.618610 0.000000 0.000000 0.000000 
-7.365788 27.398268 -0.891129 0.000000 0.000000 0.000000 -7.995108 -48.919171 2.144044 -20.070513 9.536848 26.104192 53.290615 -7.003192 13.713434 -29.459026 -6.118212 -31.421329 -6.184084 0.317237 -0.199491 0.000000 0.000000 0.000000 -9.837143 -44.178907 2.855828 -21.351697 -5.970413 -43.811962 53.403098 -7.517577 -14.717970 -21.598496 -10.254373 29.394392 -1.091250 1.278788 -0.103081 0.000000 0.000000 0.000000 -7.018910 -45.833609 3.454796 10.344777 7.408390 -2.324044 2.252817 0.125084 -2.409874 0.448425 -0.932280 1.023165 0.000000 0.000000 0.000000 2.588283 -0.117080 -2.093111 1.340595 13.713270 1.590231 11.424349 18.553089 -0.517842 0.000000 0.000000 0.000000 3.128420 -0.224409 -2.468852 2.111227 -0.990224 -12.901564 -2.282448 -3.026146 0.553364 -68.093113 -1.144609 -41.460946 178.847875 -74.658831 -179.452675 0.000000 0.000000 0.000000 3.608808 0.046209 -2.131593 3.142799 10.091299 -13.652302 -0.532229 0.477572 1.156659 -67.009360 18.701965 88.297872 -25.461173 85.754944 22.847440 0.000000 0.000000 0.000000 
-7.942947 27.742218 -0.918135 0.000000 0.000000 0.000000 -7.985646 -49.705722 2.313153 -18.995986 8.987393 26.008151 52.478823 -6.335204 13.733541 -25.446667 -6.437488 -30.533042 -7.738142 0.380865 -0.978549 0.000000 0.000000 0.000000 -10.104239 -44.961069 2.945293 -21.193191 -6.921991 -43.155799 53.580529 -8.319350 -14.462506 -23.601215 -9.922451 28.005131 -0.231472 1.504969 0.131600 0.000000 0.000000 0.000000 -7.056585 -46.467020 3.617108 10.152929 7.016499 -2.452368 2.159494 -0.382039 -2.415018 0.437177 -0.498646 0.977331 0.000000 0.000000 0.000000 2.486558 -0.631988 -2.091346 1.735781 13.797376 1.694626 11.477238 19.051040 -1.390847 0.000000 0.000000 0.000000 3.031011 -0.717573 -2.512540 2.142250 -0.316121 -12.647128 -1.909187 -2.476628 0.593066 -66.666608 -1.596799 -43.137183 179.146737 -73.921498 -179.101343 0.000000 0.000000 0.000000 3.451674 -0.431397 -2.111596 3.013989 9.115527 -13.923769 -0.226114 0.473534 0.704116 -67.899170 17.109757 88.730223 -38.920054 87.085499 36.266993 0.000000 0.000000 0.000000 
-8.440540 28.193748 -0.880444 0.000000 0.000000 0.000000 -7.789387 -49.685053 2.533537 -18.931992 8.955534 25.547001 52.023621 -5.871047 13.050613 -21.951499 -7.244798 -29.479127 -8.555271 0.438090 -1.592469 0.000000 0.000000 0.000000 -10.148627 -45.463027 3.012849 -20.629273 -7.885353 -42.077838 52.505922 -8.816109 -14.385014 -24.160066 -9.339658 27.337322 -0.548559 1.624540 0.212329 0.000000 0.000000 0.000000 -6.699539 -46.782612 3.831016 9.810771 6.730062 -2.398450 2.009543 -0.762510 -2.354211 0.438371 -0.204768 0.872935 0.000000 0.000000 0.000000 2.399371 -0.961903 -2.048389 1.900217 13.773107 1.941592 11.183012 19.489491 -2.282705 0.000000 0.000000 0.000000 2.907771 -1.036380 -2.469410 2.101068 -0.323667 -12.530938 -1.488233 -1.666503 0.258914 -63.981736 -2.060945 -44.725943 179.551945 -73.403852 -178.789409 0.000000 0.000000 0.000000 3.305321 -0.746223 -2.035099 2.895367 8.139946 -13.580882 -0.093120 0.252830 0.338656 -67.807482 15.981032 89.112556 -106.615811 88.257177 104.078286 0.000000 0.000000 0.000000 
